M48
; DRILL file {KiCad 9.0.2} date 2026-07-21T21:38:15-0700
; FORMAT={-:-/ absolute / metric / decimal}
; #@! TF.CreationDate,2026-07-21T21:38:15-07:00
; #@! TF.GenerationSoftware,Kicad,Pcbnew,9.0.2
; #@! TF.FileFunction,Plated,1,2,PTH
FMAT,2
METRIC
; #@! TA.AperFunction,Plated,PTH,ComponentDrill
T1C1.000
; #@! TA.AperFunction,Plated,PTH,ComponentDrill
T2C1.100
%
G90
G05
T1
X104.285Y-91.5
X104.285Y-106.74
X106.26Y-113.1
X106.825Y-91.5
X106.825Y-106.74
X108.8Y-113.1
X109.365Y-91.5
X109.365Y-106.74
X111.34Y-113.1
X111.905Y-91.5
X111.905Y-106.74
X113.88Y-113.1
X114.445Y-91.5
X114.445Y-106.74
X116.42Y-113.1
X116.985Y-91.5
X116.985Y-106.74
X118.96Y-113.1
X119.525Y-91.5
X119.525Y-106.74
X121.5Y-113.1
X122.065Y-91.5
X122.065Y-106.74
X124.04Y-113.1
X124.605Y-91.5
X124.605Y-106.74
X127.145Y-91.5
X127.145Y-106.74
X129.685Y-91.5
X129.685Y-106.74
X132.225Y-91.5
X132.225Y-106.74
X134.765Y-91.5
X134.765Y-106.74
X137.305Y-91.5
X137.305Y-106.74
X139.845Y-91.5
X139.845Y-106.74
T2
X100.585Y-79.98
X100.585Y-86.48
X105.085Y-79.98
X105.085Y-86.48
X111.855Y-79.855
X111.855Y-86.355
X116.355Y-79.855
X116.355Y-86.355
X123.8Y-79.8
X123.8Y-86.3
X128.3Y-79.8
X128.3Y-86.3
X135.5Y-80.0
X135.5Y-86.5
X140.0Y-80.0
X140.0Y-86.5
M30
