%TF.GenerationSoftware,KiCad,Pcbnew,9.0.2*%
%TF.CreationDate,2026-07-21T21:41:32-07:00*%
%TF.ProjectId,pcb_air,7063625f-6169-4722-9e6b-696361645f70,rev?*%
%TF.SameCoordinates,Original*%
%TF.FileFunction,Copper,L2,Bot*%
%TF.FilePolarity,Positive*%
%FSLAX46Y46*%
G04 Gerber Fmt 4.6, Leading zero omitted, Abs format (unit mm)*
G04 Created by KiCad (PCBNEW 9.0.2) date 2026-07-21 21:41:32*
%MOMM*%
%LPD*%
G01*
G04 APERTURE LIST*
%TA.AperFunction,ComponentPad*%
%ADD10C,2.000000*%
%TD*%
%TA.AperFunction,ComponentPad*%
%ADD11R,1.700000X1.700000*%
%TD*%
%TA.AperFunction,ComponentPad*%
%ADD12C,1.700000*%
%TD*%
%TA.AperFunction,ComponentPad*%
%ADD13O,1.600000X1.600000*%
%TD*%
%TA.AperFunction,ComponentPad*%
%ADD14R,1.600000X1.600000*%
%TD*%
%TA.AperFunction,Conductor*%
%ADD15C,0.200000*%
%TD*%
%TA.AperFunction,Conductor*%
%ADD16C,0.300000*%
%TD*%
G04 APERTURE END LIST*
D10*
%TO.P,Down,2,2*%
%TO.N,Net-(A1-D8)*%
X100585000Y-86480000D03*
X100585000Y-79980000D03*
%TO.P,Down,1,1*%
%TO.N,GND*%
X105085000Y-86480000D03*
X105085000Y-79980000D03*
%TD*%
%TO.P,Left,2,2*%
%TO.N,Net-(A1-D5)*%
X135500000Y-86500000D03*
X135500000Y-80000000D03*
%TO.P,Left,1,1*%
%TO.N,GND*%
X140000000Y-86500000D03*
X140000000Y-80000000D03*
%TD*%
%TO.P,Up,1,1*%
%TO.N,GND*%
X116355000Y-79855000D03*
X116355000Y-86355000D03*
%TO.P,Up,2,2*%
%TO.N,Net-(A1-D7)*%
X111855000Y-79855000D03*
X111855000Y-86355000D03*
%TD*%
%TO.P,Right,2,2*%
%TO.N,Net-(A1-D6)*%
X123800000Y-86300000D03*
X123800000Y-79800000D03*
%TO.P,Right,1,1*%
%TO.N,GND*%
X128300000Y-86300000D03*
X128300000Y-79800000D03*
%TD*%
D11*
%TO.P,GYRO,1,VCC*%
%TO.N,+3.3V*%
X124040000Y-113100000D03*
D12*
%TO.P,GYRO,2,GND*%
%TO.N,GND*%
X121500000Y-113100000D03*
%TO.P,GYRO,3,SCL*%
%TO.N,Net-(A1-SCL{slash}A5)*%
X118960000Y-113100000D03*
%TO.P,GYRO,4,SDA*%
%TO.N,Net-(A1-SDA{slash}A4)*%
X116420000Y-113100000D03*
%TO.P,GYRO,5,XDA*%
%TO.N,unconnected-(GY-521(MPU-6050)1-XDA-Pad5)*%
X113880000Y-113100000D03*
%TO.P,GYRO,6,XCL*%
%TO.N,unconnected-(GY-521(MPU-6050)1-XCL-Pad6)*%
X111340000Y-113100000D03*
%TO.P,GYRO,7,ADO*%
%TO.N,unconnected-(GY-521(MPU-6050)1-ADO-Pad7)*%
X108800000Y-113100000D03*
%TO.P,GYRO,8,INT*%
%TO.N,unconnected-(GY-521(MPU-6050)1-INT-Pad8)*%
X106260000Y-113100000D03*
%TD*%
D13*
%TO.P,A1,30,VIN*%
%TO.N,unconnected-(A1-VIN-Pad30)*%
X139845000Y-106740000D03*
%TO.P,A1,29,GND*%
%TO.N,GND*%
X137305000Y-106740000D03*
%TO.P,A1,28,B1*%
%TO.N,unconnected-(A1-B1-Pad28)*%
X134765000Y-106740000D03*
%TO.P,A1,27,VUSB/5V*%
%TO.N,unconnected-(A1-VUSB{slash}5V-Pad27)*%
X132225000Y-106740000D03*
%TO.P,A1,26,A7*%
%TO.N,unconnected-(A1-A7-Pad26)*%
X129685000Y-106740000D03*
%TO.P,A1,25,A6*%
%TO.N,unconnected-(A1-A6-Pad25)*%
X127145000Y-106740000D03*
%TO.P,A1,24,SCL/A5*%
%TO.N,Net-(A1-SCL{slash}A5)*%
X124605000Y-106740000D03*
%TO.P,A1,23,SDA/A4*%
%TO.N,Net-(A1-SDA{slash}A4)*%
X122065000Y-106740000D03*
%TO.P,A1,22,A3*%
%TO.N,unconnected-(A1-A3-Pad22)*%
X119525000Y-106740000D03*
%TO.P,A1,21,A2*%
%TO.N,unconnected-(A1-A2-Pad21)*%
X116985000Y-106740000D03*
%TO.P,A1,20,A1*%
%TO.N,unconnected-(A1-A1-Pad20)*%
X114445000Y-106740000D03*
%TO.P,A1,19,A0*%
%TO.N,unconnected-(A1-A0-Pad19)*%
X111905000Y-106740000D03*
%TO.P,A1,18,B0*%
%TO.N,unconnected-(A1-B0-Pad18)*%
X109365000Y-106740000D03*
%TO.P,A1,17,3V3*%
%TO.N,+3.3V*%
X106825000Y-106740000D03*
%TO.P,A1,16,D13/SCK*%
%TO.N,unconnected-(A1-D13{slash}SCK-Pad16)*%
X104285000Y-106740000D03*
%TO.P,A1,15,D12/CIPO*%
%TO.N,unconnected-(A1-D12{slash}CIPO-Pad15)*%
X104285000Y-91500000D03*
%TO.P,A1,14,D11/COPI*%
%TO.N,unconnected-(A1-D11{slash}COPI-Pad14)*%
X106825000Y-91500000D03*
%TO.P,A1,13,D10/CS*%
%TO.N,unconnected-(A1-D10{slash}CS-Pad13)*%
X109365000Y-91500000D03*
%TO.P,A1,12,D9*%
%TO.N,unconnected-(A1-D9-Pad12)*%
X111905000Y-91500000D03*
%TO.P,A1,11,D8*%
%TO.N,Net-(A1-D8)*%
X114445000Y-91500000D03*
%TO.P,A1,10,D7*%
%TO.N,Net-(A1-D7)*%
X116985000Y-91500000D03*
%TO.P,A1,9,D6*%
%TO.N,Net-(A1-D6)*%
X119525000Y-91500000D03*
%TO.P,A1,8,D5*%
%TO.N,Net-(A1-D5)*%
X122065000Y-91500000D03*
%TO.P,A1,7,D4*%
%TO.N,unconnected-(A1-D4-Pad7)*%
X124605000Y-91500000D03*
%TO.P,A1,6,D3*%
%TO.N,unconnected-(A1-D3-Pad6)*%
X127145000Y-91500000D03*
%TO.P,A1,5,D2*%
%TO.N,unconnected-(A1-D2-Pad5)*%
X129685000Y-91500000D03*
%TO.P,A1,4,GND*%
%TO.N,GND*%
X132225000Y-91500000D03*
%TO.P,A1,3,~{RESET}*%
%TO.N,unconnected-(A1-~{RESET}-Pad3)*%
X134765000Y-91500000D03*
%TO.P,A1,2,D0/RX*%
%TO.N,unconnected-(A1-D0{slash}RX-Pad2)*%
X137305000Y-91500000D03*
D14*
%TO.P,A1,1,D1/TX*%
%TO.N,unconnected-(A1-D1{slash}TX-Pad1)*%
X139845000Y-91500000D03*
%TD*%
D15*
%TO.N,Net-(A1-SDA{slash}A4)*%
X122065000Y-106740000D02*
X116420000Y-112385000D01*
X116420000Y-112385000D02*
X116420000Y-113100000D01*
%TO.N,Net-(A1-SCL{slash}A5)*%
X124605000Y-106740000D02*
X118960000Y-112385000D01*
X118960000Y-112385000D02*
X118960000Y-113100000D01*
D16*
%TO.N,Net-(A1-D7)*%
X111855000Y-86355000D02*
X116985000Y-91485000D01*
D15*
X116985000Y-91485000D02*
X116985000Y-91500000D01*
D16*
X111855000Y-79855000D02*
X111855000Y-86355000D01*
%TO.N,Net-(A1-D8)*%
X100585000Y-86480000D02*
X102905000Y-88800000D01*
X111745000Y-88800000D02*
X114445000Y-91500000D01*
X102905000Y-88800000D02*
X111745000Y-88800000D01*
%TO.N,Net-(A1-D5)*%
X135500000Y-86500000D02*
X133300000Y-88700000D01*
X133300000Y-88700000D02*
X124865000Y-88700000D01*
X124865000Y-88700000D02*
X122065000Y-91500000D01*
D15*
%TO.N,+3.3V*%
X124040000Y-113100000D02*
X124095000Y-113100000D01*
D16*
%TO.N,Net-(A1-D5)*%
X135500000Y-80000000D02*
X135500000Y-86500000D01*
%TO.N,Net-(A1-D6)*%
X123800000Y-86300000D02*
X119525000Y-90575000D01*
D15*
X119525000Y-90575000D02*
X119525000Y-91500000D01*
D16*
X123800000Y-79800000D02*
X123800000Y-86300000D01*
D15*
%TO.N,Net-(A1-D7)*%
X111855000Y-86355000D02*
X111855000Y-86370000D01*
D16*
%TO.N,Net-(A1-D8)*%
X100585000Y-79980000D02*
X100585000Y-86480000D01*
%TD*%
M02*
